<svg width="622" height="153" viewBox="0 0 622 153" fill="none" xmlns="http://www.w3.org/2000/svg">
<path d="M266 150.62H241.68L228 124.32C227.753 123.907 227.113 122.757 226.08 120.87C225.059 118.991 223.927 117.174 222.69 115.43V150.62H200.45V80.25H222.67V112.25C224.071 110.685 225.292 108.967 226.31 107.13C227.31 105.28 227.94 104.19 228.1 103.86L241.31 80.28H264.77L250.69 103.86C250.45 104.19 249.91 105.05 249.09 106.45C248.298 107.806 247.412 109.106 246.44 110.34C245.528 111.508 244.525 112.601 243.44 113.61C244.793 114.861 246.013 116.248 247.08 117.75C248.259 119.484 249.351 121.276 250.35 123.12L266 150.62Z" fill="#0D3D5E"/>
<path d="M337.24 80.25V119.63C337.24 127.783 336.353 134.143 334.58 138.71C333.7 140.976 332.364 143.038 330.656 144.768C328.949 146.498 326.904 147.86 324.65 148.77C319.79 150.923 312.71 152 303.41 152C297.572 152.13 291.747 151.402 286.12 149.84C281.569 148.473 277.637 145.562 275 141.61C272.24 137.61 270.863 131.943 270.87 124.61V80.25H293V119.88C292.923 123.207 293.151 126.534 293.68 129.82C294.01 131.893 295.141 133.753 296.83 135C298.47 136.2 300.98 136.79 304.36 136.79C306.31 136.803 308.255 136.598 310.16 136.18C311.564 135.984 312.865 135.33 313.86 134.32C314.61 133.32 314.97 129.76 314.97 123.58V80.25H337.24Z" fill="#0D3D5E"/>
<path d="M390.45 150.62H362.67L344.52 80.25H368.22L377.61 131.98H378.22L388.22 80.25H411.43L421.68 132H422.05L431.56 80.27H454.27L436.13 150.64H408.47L400.08 105.7H399.34L390.45 150.62Z" fill="#0D3D5E"/>
<path d="M601.8 150.62H579.58V95.68H559.71V80.25H621.71V95.68H601.8V150.62Z" fill="#0D3D5E"/>
<path d="M527.83 81H550V151.1H527.86L527.83 81Z" fill="#0D3D5E"/>
<path d="M497.27 135.76H476.85L473.16 151.14H450.54L473.16 81.04H502.06L523.7 151.14H501L497.27 135.76ZM486.94 96.17L479.68 122.17H494.31L487.43 96.17H486.94Z" fill="#0D3D5E"/>
<path d="M176.25 17.32L228.83 9.75L232.57 15.6L175.28 19.37L176.25 17.32Z" fill="white"/>
<path d="M232.57 36.87L174.46 41.52L177.59 35.17L233.29 34.56L232.57 36.87Z" fill="white"/>
<path d="M247.36 0.869995H270.82L251.82 71.24H219.58L200.45 0.869995H224L235.36 55.93H236L247.36 0.869995Z" fill="#04A5DF"/>
<path d="M277.11 0.869995H299.34V71.24H277.11V0.869995Z" fill="#04A5DF"/>
<path d="M334.71 24C337.375 25.3396 340.165 26.4147 343.04 27.21C346.852 28.4103 350.583 29.8533 354.21 31.53C357.266 33.0419 359.898 35.2892 361.87 38.07C364.05 41.03 365.14 44.9 365.14 49.68C365.14 65.0133 355.18 72.68 335.26 72.68C331.246 72.6278 327.239 72.3373 323.26 71.81C318.919 71.3088 314.609 70.5677 310.35 69.59C310.517 67.8567 310.85 65.3267 311.35 62C311.714 59.4808 312.232 56.9862 312.9 54.53C315.78 54.9434 320.113 55.4367 325.9 56.01C331.687 56.5833 336.07 56.8733 339.05 56.88C340.095 56.9831 341.149 56.8568 342.14 56.51C342.695 56.0889 343.104 55.505 343.31 54.84C343.567 54.2029 343.712 53.5264 343.74 52.84C343.752 52.0548 343.538 51.2827 343.123 50.6159C342.708 49.9491 342.11 49.4159 341.4 49.08C338.828 47.8038 336.152 46.7499 333.4 45.93C329.547 44.7926 325.792 43.348 322.17 41.61C319.041 39.987 316.367 37.6084 314.39 34.69C312.17 31.57 311.057 27.4567 311.05 22.35C311.073 18.6511 311.917 15.0034 313.52 11.67C315.167 8.17001 316.857 5.80334 318.59 4.57001C319.9 3.67001 322.59 2.80001 326.73 1.98001C330.55 1.18819 334.439 0.772849 338.34 0.73999C347.56 0.73999 355.09 1.60666 360.93 3.34C360.85 4.98 360.58 7.25 360.13 10.13C359.68 13.01 359.2 15.64 358.71 18.03L355.87 17.9C345.17 17.16 338.34 16.79 335.38 16.79C334.677 16.7417 333.971 16.7854 333.28 16.92C332.87 17.1774 332.562 17.57 332.41 18.03C332.152 18.6647 332.026 19.3451 332.04 20.03C332.07 20.875 332.336 21.6946 332.808 22.3962C333.28 23.0978 333.939 23.6534 334.71 24Z" fill="#04A5DF"/>
<path d="M375.51 0.869995H397.73V71.24H375.51V0.869995Z" fill="#04A5DF"/>
<path d="M447.12 71.24H424.89V16.3H405V0.869995H467V16.3H447.13L447.12 71.24Z" fill="#04A5DF"/>
<path d="M181.59 0.019989H30.11V151.5H181.59V0.019989Z" fill="#04A5DF"/>
<path d="M233.09 15.45L139.33 21.79L142.39 33L154.51 81.29L142.91 82.04L129.43 37.17H116.43L98.14 98.03L132.5 98.58L143.6 142.83L159.35 136.83L147.96 98.83L173.08 99.23V93.41L155.7 35.24L233.09 34.54V15.45ZM128.57 83L117.08 83.75L122.92 60.48L128.57 83Z" fill="#F7F9F7"/>
<path d="M86.79 59.17L78.07 96.39L75.04 81.76H75.06L72.47 69.33L4.34003 73.69L0.320007 87.04L58.78 87.99L65.79 120.76H82.48L96.91 59.17H86.79Z" fill="#F7F9F7"/>
<path d="M58.58 53.9L24.01 53.83V67.84L58.58 64.23V53.9Z" fill="#F7F9F7"/>
<path d="M95.83 115.56L130.4 119.18V105.16L95.83 105.23V115.56Z" fill="#F7F9F7"/>
</svg>
